<svg xmlns="http://www.w3.org/2000/svg" width="231" height="64" viewBox="0 0 231 64">
  <g id="Vector_Smart_Object" data-name="Vector Smart Object" transform="translate(-138.324 -133.602)">
    <path id="Path_73" data-name="Path 73" d="M181.652,178.446a14.478,14.478,0,0,1-1.133,4.04,18.355,18.355,0,0,1-5.511,7.308,22.626,22.626,0,0,1-6.252,3.671c-.5.194-1.023.335-1.529.505a1.607,1.607,0,0,1-1.889-.733,6.131,6.131,0,0,1-1.113-3.438,6.836,6.836,0,0,1,3.5-6.733,10.7,10.7,0,0,1,4.708-1.343c.249-.022.5-.041.8-.07v-20.9a11.07,11.07,0,0,0-6.347,1.311,15.594,15.594,0,0,0-4.977,4.526c-.554-.566-1.008-1.012-1.449-1.484a16.475,16.475,0,0,0-4.061-3.278,10.049,10.049,0,0,0-5.541-1.318c-.172.01-.339.044-.559.073v21.058c.232.017.427.034.614.051a15.36,15.36,0,0,1,2.807.3,7.488,7.488,0,0,1,5.653,5.74,4.528,4.528,0,0,1,.107,1.384,11,11,0,0,1-.936,3.89,1.712,1.712,0,0,1-2.193,1.161,21.239,21.239,0,0,1-9.2-4.89,18.484,18.484,0,0,1-4.251-5.558A18.7,18.7,0,0,1,141,173.852a17.8,17.8,0,0,1,3.592-9.588,20.777,20.777,0,0,1,6.683-5.8,21.013,21.013,0,0,1,7.387-2.4c.07-.007.14-.019.215-.034l.449.029h.012a.184.184,0,0,0,.175-.185.192.192,0,0,0-.167-.211l-.641-.041a9.161,9.161,0,0,1-6.207-6.58,9.828,9.828,0,0,1,1.482-8.464A8.809,8.809,0,0,1,161.5,136.6a8.285,8.285,0,0,1,4.98,1.607,10.026,10.026,0,0,1,4.181,7.838,9.428,9.428,0,0,1-5.566,9.248,5.617,5.617,0,0,1-.846.3h-.9a.2.2,0,0,0,0,.4h.564c.4.066.8.134,1.2.214A21.405,21.405,0,0,1,174.116,160a19.953,19.953,0,0,1,5.658,6.517,16.836,16.836,0,0,1,2.058,7.619,41.449,41.449,0,0,1-.18,4.31m-19.484,8.692a1.026,1.026,0,0,1-.122.223c-.037.046-.1.058-.217.126-.132-.272-.279-.527-.394-.8a17.9,17.9,0,0,0-2.133-3.657,8.531,8.531,0,0,0-3.46-2.683c-.906-.405-1.874-.639-2.814-.954-.182-.066-.362-.151-.651-.274,0-5.414-.132-10.829.012-16.362,4.069,1.073,7.01,3.839,9.747,7.1.065-.073.17-.192.262-.313a35.424,35.424,0,0,1,2.21-2.935,10.707,10.707,0,0,1,3.553-2.809,4.624,4.624,0,0,1,3.2-.49v16a2.094,2.094,0,0,1-.4.177,12.568,12.568,0,0,0-4.807,1.894,7.742,7.742,0,0,0-2.679,2.94c-.477.913-.873,1.879-1.307,2.819m20.714-19.521a21.68,21.68,0,0,0-4.837-7.624,22.447,22.447,0,0,0-5.833-4.344c-.549-.284-1.093-.588-1.706-.915.12-.219.185-.35.254-.476.472-.867,1.008-1.7,1.4-2.608a13.083,13.083,0,0,0,.878-8.027,12.265,12.265,0,0,0-5.466-8.212,11.688,11.688,0,0,0-14.385,1.481,12.817,12.817,0,0,0-3.765,7.9,14.285,14.285,0,0,0,2.158,9.107c.16.27.309.544.5.889-.254.146-.432.26-.624.354a22.97,22.97,0,0,0-4.321,2.581,23.932,23.932,0,0,0-7.115,9.083,18.968,18.968,0,0,0-1.385,4.511,24.758,24.758,0,0,0-.272,5.57,19.284,19.284,0,0,0,1.345,6.235,22.417,22.417,0,0,0,3.882,6.31,23.354,23.354,0,0,0,7.113,5.723,20.355,20.355,0,0,0,6.723,2.183,26.568,26.568,0,0,0,10.036-.478,22.738,22.738,0,0,0,6.486-2.79,21.613,21.613,0,0,0,7.282-7.6,22.358,22.358,0,0,0,2.931-8.894,21.415,21.415,0,0,0-1.282-9.955" fill="#007aac"/>
    <path id="Path_74" data-name="Path 74" d="M165.95,150.75c-.324-.464-.646-.925-.965-1.389l-.249.124-.768,1.182a4.185,4.185,0,0,1-5.1.015c-.387-.5-.644-.84-.871-1.134-.447.435-.811.789-1.292,1.255,1.676,1.292,3.248,2.331,5.251,2.086,1.564-.189,3.635-1.275,3.994-2.139" fill="#007aac"/>
    <path id="Path_75" data-name="Path 75" d="M164.738,146.112a1.649,1.649,0,0,0,1.614-1.838,1.585,1.585,0,1,0-3.166-.051c-.012,1.153.584,1.882,1.552,1.889" fill="#007aac"/>
    <path id="Path_76" data-name="Path 76" d="M157.526,146.051a1.469,1.469,0,0,0,1.659-1.583,1.694,1.694,0,0,0-1.534-1.952,1.629,1.629,0,0,0-1.474,1.719c.052,1.088.556,1.826,1.35,1.816" fill="#007aac"/>
    <rect id="Rectangle_25" data-name="Rectangle 25" width="0.559" height="55.086" transform="translate(193.019 140.421)" fill="#007aac"/>
    <path id="Path_77" data-name="Path 77" d="M206.33,166.25h-1.764v2.525h1.711a4.917,4.917,0,0,0,1.16-.117,1.361,1.361,0,0,0,.718-.4,1.111,1.111,0,0,0,.247-.767,1.171,1.171,0,0,0-.2-.673,1.207,1.207,0,0,0-.554-.435,4.079,4.079,0,0,0-1.32-.138m-1.1,3.858h-.669v2.952a1.189,1.189,0,0,1-.264.857.9.9,0,0,1-.689.277.9.9,0,0,1-.708-.289,1.252,1.252,0,0,1-.249-.845v-7.068a1.18,1.18,0,0,1,.277-.872,1.253,1.253,0,0,1,.893-.265h3.111a9.593,9.593,0,0,1,1.1.051,2.91,2.91,0,0,1,.823.214,2.456,2.456,0,0,1,.786.52,2.3,2.3,0,0,1,.516.789,2.521,2.521,0,0,1,.18.947,2.263,2.263,0,0,1-.6,1.644,3.478,3.478,0,0,1-1.806.869,3.519,3.519,0,0,1,.973.777,8.475,8.475,0,0,1,1.392,2.139,2.071,2.071,0,0,1,.2.646.637.637,0,0,1-.12.357.829.829,0,0,1-.327.282.985.985,0,0,1-.474.1.936.936,0,0,1-.541-.148,1.388,1.388,0,0,1-.377-.371c-.1-.153-.247-.374-.429-.665l-.766-1.241a6.822,6.822,0,0,0-.738-1.039,1.837,1.837,0,0,0-.659-.49,2.38,2.38,0,0,0-.843-.131" fill="#007aac"/>
    <path id="Path_78" data-name="Path 78" d="M212.228,173.058v-7.233a1.184,1.184,0,0,1,.264-.845.882.882,0,0,1,.681-.282.919.919,0,0,1,.7.279,1.179,1.179,0,0,1,.267.847v7.233a1.192,1.192,0,0,1-.267.852.906.906,0,0,1-.7.284.889.889,0,0,1-.679-.284,1.208,1.208,0,0,1-.267-.852" fill="#007aac"/>
    <path id="Path_79" data-name="Path 79" d="M218.38,173.058v-2.909l-2.3-3.479a6.385,6.385,0,0,1-.429-.731,1.1,1.1,0,0,1-.127-.459.712.712,0,0,1,.257-.551.884.884,0,0,1,.626-.231.763.763,0,0,1,.594.216,6.2,6.2,0,0,1,.609.857l1.764,2.792,1.784-2.792c.107-.168.2-.313.272-.427a2.305,2.305,0,0,1,.239-.33,1.017,1.017,0,0,1,.294-.236.87.87,0,0,1,.392-.08.849.849,0,0,1,.6.226.722.722,0,0,1,.242.532,1.1,1.1,0,0,1-.122.488,6.625,6.625,0,0,1-.419.677l-2.363,3.528v2.909a1.181,1.181,0,0,1-.269.852.982.982,0,0,1-1.377,0,1.2,1.2,0,0,1-.264-.857" fill="#007aac"/>
    <path id="Path_80" data-name="Path 80" d="M225.939,170.448h2.819l-1.422-3.793ZM229.724,173l-.452-1.153h-3.837l-.449,1.178a4.1,4.1,0,0,1-.452.93.726.726,0,0,1-.611.243.9.9,0,0,1-.636-.257.777.777,0,0,1-.277-.583,1.286,1.286,0,0,1,.062-.388c.045-.134.115-.32.215-.558l2.412-5.963c.07-.17.15-.374.247-.617a3.21,3.21,0,0,1,.309-.6,1.232,1.232,0,0,1,.432-.386,1.345,1.345,0,0,1,.661-.146,1.359,1.359,0,0,1,.666.146,1.231,1.231,0,0,1,.429.379,2.646,2.646,0,0,1,.279.5c.075.177.17.415.284.711l2.467,5.927a2.993,2.993,0,0,1,.289.983.8.8,0,0,1-.274.585.913.913,0,0,1-.661.267.885.885,0,0,1-.384-.078.824.824,0,0,1-.269-.214,1.9,1.9,0,0,1-.237-.415c-.082-.185-.155-.35-.215-.49" fill="#007aac"/>
    <path id="Path_81" data-name="Path 81" d="M235.092,166.325v6.235h1.447c.319,0,.569-.01.746-.027a2.439,2.439,0,0,0,.561-.124,1.6,1.6,0,0,0,.5-.282,3.354,3.354,0,0,0,.958-2.719,3.914,3.914,0,0,0-.422-2.037,1.882,1.882,0,0,0-1.04-.862,5.326,5.326,0,0,0-1.492-.185Zm-.741-1.471h2.492a6.923,6.923,0,0,1,1.667.175,3.126,3.126,0,0,1,1.262.658,4.59,4.59,0,0,1,1.474,3.734,7.075,7.075,0,0,1-.15,1.51,4.459,4.459,0,0,1-.457,1.231,3.9,3.9,0,0,1-.791.978,3.275,3.275,0,0,1-.831.534,3.822,3.822,0,0,1-.97.282,7.672,7.672,0,0,1-1.168.08h-2.492a1.563,1.563,0,0,1-.783-.153.719.719,0,0,1-.347-.43,2.751,2.751,0,0,1-.08-.724V166a1.163,1.163,0,0,1,.279-.872,1.241,1.241,0,0,1,.893-.27" fill="#007aac"/>
    <path id="Path_82" data-name="Path 82" d="M244.849,165.823v2.632h4.126v-2.632a1.223,1.223,0,0,1,.259-.845.9.9,0,0,1,.686-.279.923.923,0,0,1,.7.277,1.179,1.179,0,0,1,.267.847v7.235a1.185,1.185,0,0,1-.269.852.906.906,0,0,1-.7.282.875.875,0,0,1-.686-.282,1.223,1.223,0,0,1-.259-.852V169.97h-4.126v3.088a1.2,1.2,0,0,1-.269.852.913.913,0,0,1-.7.282.883.883,0,0,1-.689-.282,1.235,1.235,0,0,1-.257-.852v-7.235a1.235,1.235,0,0,1,.254-.845.889.889,0,0,1,.691-.279.927.927,0,0,1,.7.277,1.191,1.191,0,0,1,.267.847" fill="#007aac"/>
    <path id="Path_83" data-name="Path 83" d="M258.727,165.813l3.675,5.412v-5.461a1.165,1.165,0,0,1,.237-.8.79.79,0,0,1,.634-.265.818.818,0,0,1,.649.265,1.165,1.165,0,0,1,.237.8v7.223c0,.8-.342,1.2-1.028,1.2a1.317,1.317,0,0,1-.464-.073,1.133,1.133,0,0,1-.387-.223,2.564,2.564,0,0,1-.334-.369c-.1-.138-.2-.282-.309-.427l-3.585-5.351v5.383a1.119,1.119,0,0,1-.252.794.829.829,0,0,1-.641.267.82.82,0,0,1-.651-.272,1.148,1.148,0,0,1-.244-.789v-7.087a1.951,1.951,0,0,1,.1-.709,1.067,1.067,0,0,1,.407-.461,1.136,1.136,0,0,1,.611-.175,1.1,1.1,0,0,1,.442.078,1.145,1.145,0,0,1,.322.223,2.269,2.269,0,0,1,.282.357c.1.146.2.3.3.456" fill="#007aac"/>
    <path id="Path_84" data-name="Path 84" d="M268.332,170.448h2.819l-1.422-3.793ZM272.117,173l-.452-1.153h-3.837l-.449,1.178a4.1,4.1,0,0,1-.452.93.723.723,0,0,1-.611.243.9.9,0,0,1-.636-.257.777.777,0,0,1-.277-.583,1.367,1.367,0,0,1,.062-.388c.045-.134.115-.32.215-.558l2.415-5.963c.067-.17.147-.374.244-.617a3.212,3.212,0,0,1,.309-.6,1.212,1.212,0,0,1,.432-.386,1.345,1.345,0,0,1,.661-.146,1.359,1.359,0,0,1,.666.146,1.231,1.231,0,0,1,.429.379,2.647,2.647,0,0,1,.279.5c.075.177.17.415.287.711l2.465,5.927a2.931,2.931,0,0,1,.289.983.791.791,0,0,1-.274.585.911.911,0,0,1-.659.267.9.9,0,0,1-.387-.078.861.861,0,0,1-.272-.214,2.021,2.021,0,0,1-.234-.415c-.082-.185-.155-.35-.215-.49" fill="#007aac"/>
    <path id="Path_85" data-name="Path 85" d="M281.045,165.823v4.812a9.045,9.045,0,0,1-.055,1.063,3.307,3.307,0,0,1-.247.893,2.4,2.4,0,0,1-1.063,1.178,3.53,3.53,0,0,1-1.8.422,3.828,3.828,0,0,1-1.6-.291,2.319,2.319,0,0,1-1.033-.952,3.55,3.55,0,0,1-.334-.809,3.176,3.176,0,0,1-.13-.869.86.86,0,0,1,.252-.67.9.9,0,0,1,.644-.233.731.731,0,0,1,.574.211,1.5,1.5,0,0,1,.3.663,5.849,5.849,0,0,0,.217.775,1.188,1.188,0,0,0,.367.49,1.144,1.144,0,0,0,.733.209q1.269,0,1.27-1.809v-5.084a1.235,1.235,0,0,1,.254-.845.889.889,0,0,1,.691-.279.926.926,0,0,1,.706.279,1.223,1.223,0,0,1,.259.845" fill="#007aac"/>
    <path id="Path_86" data-name="Path 86" d="M289.335,166.289H285.03v2.256h3.964a.957.957,0,0,1,.654.189.646.646,0,0,1,.215.507.668.668,0,0,1-.212.51.939.939,0,0,1-.656.2H285.03v2.613h4.453a1,1,0,0,1,.681.2.692.692,0,0,1,.227.539.683.683,0,0,1-.227.532,1.029,1.029,0,0,1-.681.2h-5.194a1.251,1.251,0,0,1-.9-.27,1.187,1.187,0,0,1-.274-.872V166a1.505,1.505,0,0,1,.125-.656.726.726,0,0,1,.382-.369,1.646,1.646,0,0,1,.666-.117h5.047a.986.986,0,0,1,.679.2.646.646,0,0,1,.222.512.662.662,0,0,1-.222.527,1.012,1.012,0,0,1-.679.2" fill="#007aac"/>
    <path id="Path_87" data-name="Path 87" d="M293.836,166.325v6.235h1.447c.317,0,.569-.01.746-.027a2.439,2.439,0,0,0,.561-.124,1.551,1.551,0,0,0,.5-.282,3.354,3.354,0,0,0,.958-2.719,3.915,3.915,0,0,0-.422-2.037,1.882,1.882,0,0,0-1.04-.862,5.326,5.326,0,0,0-1.492-.185Zm-.741-1.471h2.492a6.923,6.923,0,0,1,1.667.175,3.111,3.111,0,0,1,1.262.658,4.583,4.583,0,0,1,1.474,3.734,7.075,7.075,0,0,1-.15,1.51,4.381,4.381,0,0,1-.457,1.231,3.793,3.793,0,0,1-.791.978,3.275,3.275,0,0,1-.831.534,3.833,3.833,0,0,1-.968.282,7.73,7.73,0,0,1-1.17.08h-2.49a1.574,1.574,0,0,1-.786-.153.728.728,0,0,1-.347-.43,2.765,2.765,0,0,1-.077-.724V166a1.173,1.173,0,0,1,.277-.872,1.245,1.245,0,0,1,.893-.27" fill="#007aac"/>
    <path id="Path_88" data-name="Path 88" d="M312.137,171.281a2.655,2.655,0,0,1-.442,1.5,2.875,2.875,0,0,1-1.292,1.039,4.9,4.9,0,0,1-2.013.379,4.611,4.611,0,0,1-2.305-.515,3.039,3.039,0,0,1-1.045-.986,2.19,2.19,0,0,1-.4-1.2.784.784,0,0,1,.24-.58.841.841,0,0,1,.616-.243.734.734,0,0,1,.511.189,1.493,1.493,0,0,1,.357.556,3.788,3.788,0,0,0,.389.736,1.588,1.588,0,0,0,.589.486,2.251,2.251,0,0,0,1,.189,2.309,2.309,0,0,0,1.382-.384,1.152,1.152,0,0,0,.529-.962,1,1,0,0,0-.284-.743,1.843,1.843,0,0,0-.741-.435c-.3-.1-.706-.209-1.212-.32a9.069,9.069,0,0,1-1.7-.541,2.766,2.766,0,0,1-1.09-.847,2.157,2.157,0,0,1-.4-1.331,2.256,2.256,0,0,1,.424-1.348,2.711,2.711,0,0,1,1.23-.906,5.155,5.155,0,0,1,1.893-.316,4.773,4.773,0,0,1,1.5.211,3.187,3.187,0,0,1,1.053.556,2.364,2.364,0,0,1,.611.731,1.667,1.667,0,0,1,.195.745.873.873,0,0,1-.242.6.788.788,0,0,1-.6.267.724.724,0,0,1-.5-.16,2.282,2.282,0,0,1-.369-.522,2.358,2.358,0,0,0-.619-.811,1.836,1.836,0,0,0-1.155-.294,2.054,2.054,0,0,0-1.2.318.916.916,0,0,0-.454.76.759.759,0,0,0,.155.476,1.231,1.231,0,0,0,.427.345,2.762,2.762,0,0,0,.546.226c.185.056.489.134.913.24a14.179,14.179,0,0,1,1.447.4,4.622,4.622,0,0,1,1.1.532,2.248,2.248,0,0,1,.706.794,2.484,2.484,0,0,1,.257,1.175" fill="#007aac"/>
    <path id="Path_89" data-name="Path 89" d="M321.8,171.138a2.369,2.369,0,0,1-.222.949,3.5,3.5,0,0,1-.7,1,3.638,3.638,0,0,1-1.217.8,4.511,4.511,0,0,1-1.726.306,6,6,0,0,1-1.357-.138,3.928,3.928,0,0,1-1.11-.427,3.647,3.647,0,0,1-.918-.77,4.527,4.527,0,0,1-.639-.966,5.016,5.016,0,0,1-.394-1.144,6.112,6.112,0,0,1-.132-1.289,5.575,5.575,0,0,1,.332-1.989,4.177,4.177,0,0,1,.951-1.5,4.107,4.107,0,0,1,1.447-.949,4.77,4.77,0,0,1,1.769-.325,4.54,4.54,0,0,1,2.043.444,3.655,3.655,0,0,1,1.37,1.1,2.132,2.132,0,0,1,.476,1.236.791.791,0,0,1-.232.566.752.752,0,0,1-.559.243.8.8,0,0,1-.551-.17,2.312,2.312,0,0,1-.409-.58,2.825,2.825,0,0,0-.878-1.022,2.189,2.189,0,0,0-1.245-.337,2.277,2.277,0,0,0-1.876.869,3.866,3.866,0,0,0-.7,2.474,4.506,4.506,0,0,0,.312,1.782,2.248,2.248,0,0,0,.873,1.063,2.484,2.484,0,0,0,1.33.35,2.366,2.366,0,0,0,1.392-.4,2.4,2.4,0,0,0,.858-1.168,1.869,1.869,0,0,1,.3-.59.681.681,0,0,1,.576-.231.838.838,0,0,1,.589.231.779.779,0,0,1,.242.578" fill="#007aac"/>
    <path id="Path_90" data-name="Path 90" d="M325.442,165.823v2.632h4.126v-2.632a1.223,1.223,0,0,1,.259-.845.9.9,0,0,1,.686-.279.921.921,0,0,1,.7.277,1.179,1.179,0,0,1,.267.847v7.235a1.174,1.174,0,0,1-.269.852.9.9,0,0,1-.694.282.883.883,0,0,1-.689-.282,1.235,1.235,0,0,1-.257-.852V169.97h-4.126v3.088a1.185,1.185,0,0,1-.272.852.9.9,0,0,1-.694.282.88.88,0,0,1-.689-.282,1.235,1.235,0,0,1-.257-.852v-7.235a1.235,1.235,0,0,1,.252-.845.9.9,0,0,1,.694-.279.921.921,0,0,1,.7.277,1.18,1.18,0,0,1,.269.847" fill="#007aac"/>
    <path id="Path_91" data-name="Path 91" d="M340.4,169.419a4.224,4.224,0,0,0-.334-1.746,2.479,2.479,0,0,0-.956-1.117,2.689,2.689,0,0,0-1.427-.381,2.716,2.716,0,0,0-1.058.209,2.368,2.368,0,0,0-.838.609,2.942,2.942,0,0,0-.551,1.029,4.441,4.441,0,0,0-.2,1.4,4.561,4.561,0,0,0,.2,1.418,2.851,2.851,0,0,0,.571,1.049,2.359,2.359,0,0,0,.851.624,2.719,2.719,0,0,0,2.4-.153,2.478,2.478,0,0,0,.978-1.1,4.136,4.136,0,0,0,.364-1.838m-2.717-4.72a5.179,5.179,0,0,1,2.52.575,3.823,3.823,0,0,1,1.594,1.651,5.507,5.507,0,0,1,.541,2.511,6.061,6.061,0,0,1-.3,1.935,4.191,4.191,0,0,1-.888,1.508,3.907,3.907,0,0,1-1.454.978,5.895,5.895,0,0,1-3.959-.01,3.933,3.933,0,0,1-1.462-.983,4.132,4.132,0,0,1-.886-1.522,5.966,5.966,0,0,1-.3-1.923,5.747,5.747,0,0,1,.314-1.94,4.148,4.148,0,0,1,.9-1.505,3.97,3.97,0,0,1,1.442-.947,5.291,5.291,0,0,1,1.931-.328" fill="#007aac"/>
    <path id="Path_92" data-name="Path 92" d="M350.843,169.419a4.183,4.183,0,0,0-.337-1.746,2.45,2.45,0,0,0-.955-1.117,2.675,2.675,0,0,0-1.424-.381,2.72,2.72,0,0,0-1.06.209,2.414,2.414,0,0,0-.838.609,3.026,3.026,0,0,0-.551,1.029,4.514,4.514,0,0,0-.2,1.4,4.636,4.636,0,0,0,.2,1.418,2.818,2.818,0,0,0,.574,1.049,2.371,2.371,0,0,0,.848.624,2.719,2.719,0,0,0,2.4-.153,2.468,2.468,0,0,0,.98-1.1,4.172,4.172,0,0,0,.364-1.838m-2.717-4.72a5.179,5.179,0,0,1,2.52.575,3.837,3.837,0,0,1,1.594,1.651,5.506,5.506,0,0,1,.539,2.511,5.926,5.926,0,0,1-.3,1.935,4.156,4.156,0,0,1-.888,1.508,3.908,3.908,0,0,1-1.454.978,5.895,5.895,0,0,1-3.959-.01,3.9,3.9,0,0,1-1.459-.983,4.1,4.1,0,0,1-.886-1.522,5.966,5.966,0,0,1-.3-1.923,5.746,5.746,0,0,1,.312-1.94,4.183,4.183,0,0,1,.9-1.505,3.981,3.981,0,0,1,1.444-.947,5.282,5.282,0,0,1,1.931-.328" fill="#007aac"/>
    <path id="Path_93" data-name="Path 93" d="M356.287,165.823v6.684h3.877a1.038,1.038,0,0,1,.708.223.733.733,0,0,1,0,1.1,1.075,1.075,0,0,1-.713.211h-4.618a1.229,1.229,0,0,1-.9-.272,1.166,1.166,0,0,1-.274-.869v-7.075a1.2,1.2,0,0,1,.262-.845.9.9,0,0,1,.684-.279.927.927,0,0,1,.7.277,1.191,1.191,0,0,1,.267.847" fill="#007aac"/>
    <path id="Path_94" data-name="Path 94" d="M369.045,171.281a2.654,2.654,0,0,1-.442,1.5,2.881,2.881,0,0,1-1.29,1.039,4.925,4.925,0,0,1-2.016.379,4.607,4.607,0,0,1-2.3-.515,3,3,0,0,1-1.045-.986,2.195,2.195,0,0,1-.4-1.2.8.8,0,0,1,.239-.58.847.847,0,0,1,.619-.243.732.732,0,0,1,.509.189,1.5,1.5,0,0,1,.359.556,3.656,3.656,0,0,0,.389.736,1.568,1.568,0,0,0,.589.486,2.236,2.236,0,0,0,1,.189,2.287,2.287,0,0,0,1.377-.384,1.152,1.152,0,0,0,.534-.962,1,1,0,0,0-.284-.743,1.86,1.86,0,0,0-.741-.435c-.3-.1-.708-.209-1.215-.32a9.13,9.13,0,0,1-1.7-.541,2.765,2.765,0,0,1-1.09-.847,2.155,2.155,0,0,1-.4-1.331,2.254,2.254,0,0,1,.422-1.348,2.711,2.711,0,0,1,1.23-.906,5.164,5.164,0,0,1,1.894-.316,4.761,4.761,0,0,1,1.5.211,3.162,3.162,0,0,1,1.053.556,2.33,2.33,0,0,1,.611.731,1.636,1.636,0,0,1,.195.745.873.873,0,0,1-.242.6.782.782,0,0,1-.6.267.715.715,0,0,1-.5-.16,2.2,2.2,0,0,1-.372-.522,2.385,2.385,0,0,0-.616-.811,1.839,1.839,0,0,0-1.158-.294,2.054,2.054,0,0,0-1.2.318.919.919,0,0,0-.452.76.759.759,0,0,0,.155.476,1.231,1.231,0,0,0,.427.345,2.682,2.682,0,0,0,.544.226c.185.056.489.134.916.24a14.307,14.307,0,0,1,1.444.4,4.577,4.577,0,0,1,1.1.532,2.231,2.231,0,0,1,.708.794,2.514,2.514,0,0,1,.254,1.175" fill="#007aac"/>
    <path id="Path_95" data-name="Path 95" d="M204.142,182.61v5.2h3.014a.792.792,0,0,1,.554.172.548.548,0,0,1,.195.427.538.538,0,0,1-.192.425.83.83,0,0,1-.556.165h-3.59a.976.976,0,0,1-.7-.209.925.925,0,0,1-.212-.68v-5.5a.943.943,0,0,1,.2-.658.7.7,0,0,1,.534-.219.724.724,0,0,1,.544.216.926.926,0,0,1,.207.66" fill="#007aac"/>
    <path id="Path_96" data-name="Path 96" d="M213.717,182.969h-3.35v1.755h3.083a.744.744,0,0,1,.509.151.489.489,0,0,1,.17.391.52.52,0,0,1-.167.4.73.73,0,0,1-.511.155h-3.083v2.03h3.465a.769.769,0,0,1,.529.16.532.532,0,0,1,.177.42.52.52,0,0,1-.177.413.781.781,0,0,1-.529.158h-4.041a.965.965,0,0,1-.7-.209.916.916,0,0,1-.212-.675v-5.373a1.155,1.155,0,0,1,.095-.51.568.568,0,0,1,.3-.284,1.235,1.235,0,0,1,.519-.092h3.927a.784.784,0,0,1,.529.151.564.564,0,0,1,0,.811.784.784,0,0,1-.529.153" fill="#007aac"/>
    <path id="Path_97" data-name="Path 97" d="M217.474,186.206h2.193l-1.108-2.948Zm2.944,1.984-.349-.9h-2.986l-.352.915a3.054,3.054,0,0,1-.349.724.56.56,0,0,1-.474.189.7.7,0,0,1-.5-.2.6.6,0,0,1-.215-.452.942.942,0,0,1,.05-.3c.03-.1.087-.248.165-.435l1.876-4.64c.055-.131.12-.291.195-.478a2.287,2.287,0,0,1,.24-.466.942.942,0,0,1,.337-.3,1.03,1.03,0,0,1,.511-.117,1.053,1.053,0,0,1,.519.117.923.923,0,0,1,.334.294,2.2,2.2,0,0,1,.217.388c.057.136.132.323.222.551l1.918,4.613a2.266,2.266,0,0,1,.225.762.623.623,0,0,1-.212.456.713.713,0,0,1-.514.209.669.669,0,0,1-.3-.063.575.575,0,0,1-.21-.165,1.619,1.619,0,0,1-.185-.32c-.065-.146-.12-.272-.167-.384" fill="#007aac"/>
    <path id="Path_98" data-name="Path 98" d="M225.947,182.94h-1.37V184.9H225.9a3.809,3.809,0,0,0,.9-.09,1.09,1.09,0,0,0,.559-.306.867.867,0,0,0,.192-.6.891.891,0,0,0-.155-.522.937.937,0,0,0-.429-.34,3.225,3.225,0,0,0-1.028-.107m-.853,3h-.516v2.294a.934.934,0,0,1-.21.668.7.7,0,0,1-.536.214.686.686,0,0,1-.549-.223.959.959,0,0,1-.2-.658v-5.5a.908.908,0,0,1,.217-.677.96.96,0,0,1,.694-.211h2.42a7.184,7.184,0,0,1,.858.044,2.135,2.135,0,0,1,.639.168,1.859,1.859,0,0,1,.611.4,1.807,1.807,0,0,1,.4.612,1.991,1.991,0,0,1,.137.738,1.752,1.752,0,0,1-.464,1.277,2.7,2.7,0,0,1-1.4.68,2.7,2.7,0,0,1,.756.6,6.133,6.133,0,0,1,.646.852,5.9,5.9,0,0,1,.439.813,1.588,1.588,0,0,1,.157.5.487.487,0,0,1-.092.282.625.625,0,0,1-.252.219.826.826,0,0,1-.372.08.723.723,0,0,1-.417-.114,1.038,1.038,0,0,1-.3-.289c-.082-.117-.192-.289-.334-.517l-.594-.964a5.237,5.237,0,0,0-.574-.809,1.376,1.376,0,0,0-.514-.381,1.756,1.756,0,0,0-.656-.1" fill="#007aac"/>
    <path id="Path_99" data-name="Path 99" d="M232.41,182.6l2.861,4.21v-4.249a.945.945,0,0,1,.18-.622.632.632,0,0,1,.5-.209.641.641,0,0,1,.5.209.905.905,0,0,1,.187.622v5.618q0,.943-.8.942a1.139,1.139,0,0,1-.362-.056.915.915,0,0,1-.3-.177,1.733,1.733,0,0,1-.262-.286c-.082-.109-.16-.219-.242-.333l-2.789-4.164v4.188a.9.9,0,0,1-.192.619.67.67,0,0,1-.5.209.658.658,0,0,1-.506-.211.9.9,0,0,1-.187-.617V182.78a1.536,1.536,0,0,1,.077-.549.8.8,0,0,1,.314-.359.892.892,0,0,1,.476-.141.782.782,0,0,1,.344.066.846.846,0,0,1,.252.17,1.749,1.749,0,0,1,.217.277c.077.114.155.233.235.357" fill="#007aac"/>
    <path id="Path_100" data-name="Path 100" d="M245.6,183.049h-1.622v5.191a.951.951,0,0,1-.2.665.711.711,0,0,1-.536.216.7.7,0,0,1-.534-.219.937.937,0,0,1-.207-.663v-5.191H240.87a.833.833,0,0,1-.566-.163.593.593,0,0,1,.007-.872.855.855,0,0,1,.559-.163H245.6a.854.854,0,0,1,.574.168.557.557,0,0,1,.187.435.543.543,0,0,1-.19.432.861.861,0,0,1-.571.163" fill="#007aac"/>
    <path id="Path_101" data-name="Path 101" d="M252.448,185.4a3.3,3.3,0,0,0-.259-1.357,1.96,1.96,0,0,0-.743-.872,2.094,2.094,0,0,0-1.11-.291,2.047,2.047,0,0,0-.823.163,1.828,1.828,0,0,0-.651.473,2.222,2.222,0,0,0-.432.8,3.5,3.5,0,0,0-.157,1.085,3.6,3.6,0,0,0,.157,1.1,2.225,2.225,0,0,0,.447.818,1.832,1.832,0,0,0,.661.486,2.042,2.042,0,0,0,.816.16,2.1,2.1,0,0,0,1.053-.277,1.966,1.966,0,0,0,.761-.857,3.28,3.28,0,0,0,.282-1.433m-2.113-3.671a4,4,0,0,1,1.961.452,2.976,2.976,0,0,1,1.24,1.28,4.3,4.3,0,0,1,.419,1.952,4.608,4.608,0,0,1-.229,1.505,3.215,3.215,0,0,1-.691,1.175,3.11,3.11,0,0,1-1.13.762,4.223,4.223,0,0,1-1.539.262,4.056,4.056,0,0,1-1.542-.274,3.028,3.028,0,0,1-1.138-.758A3.276,3.276,0,0,1,247,186.9a4.682,4.682,0,0,1-.232-1.5,4.5,4.5,0,0,1,.242-1.508,3.207,3.207,0,0,1,.706-1.17,3.038,3.038,0,0,1,1.12-.738,4.15,4.15,0,0,1,1.5-.255" fill="#007aac"/>
    <path id="Path_102" data-name="Path 102" d="M260.816,185.827h-1.547v2.086h1.6q1.508,0,1.507-1.059a.857.857,0,0,0-.389-.784,2.245,2.245,0,0,0-1.168-.243m-1.547-2.884v1.845h1.36a2.824,2.824,0,0,0,.861-.1.82.82,0,0,0,.462-.391.841.841,0,0,0,.127-.456.706.706,0,0,0-.4-.719,3.1,3.1,0,0,0-1.207-.177ZM260.925,189h-2.243a.762.762,0,0,1-.9-.889v-5.371a.917.917,0,0,1,.212-.68.957.957,0,0,1,.689-.206h2.377a5.547,5.547,0,0,1,.913.063,2.039,2.039,0,0,1,.691.243,1.8,1.8,0,0,1,.459.384,1.674,1.674,0,0,1-.691,2.673,1.752,1.752,0,0,1,1.447,1.743,1.929,1.929,0,0,1-.314,1.08,1.867,1.867,0,0,1-.853.709,2.972,2.972,0,0,1-.768.192,7.783,7.783,0,0,1-1.018.058" fill="#007aac"/>
    <path id="Path_103" data-name="Path 103" d="M270,182.969h-3.348v1.755h3.083a.744.744,0,0,1,.509.151.488.488,0,0,1,.167.391.509.509,0,0,1-.165.4.73.73,0,0,1-.511.155h-3.083v2.03h3.463a.776.776,0,0,1,.531.16.532.532,0,0,1,.177.42.52.52,0,0,1-.177.413.788.788,0,0,1-.531.158h-4.039a.972.972,0,0,1-.7-.209.916.916,0,0,1-.212-.675v-5.373a1.152,1.152,0,0,1,.1-.51.555.555,0,0,1,.3-.284,1.208,1.208,0,0,1,.516-.092H270a.776.776,0,0,1,.529.151.558.558,0,0,1,0,.811.776.776,0,0,1-.529.153" fill="#007aac"/>
    <rect id="Rectangle_26" data-name="Rectangle 26" width="1.471" height="1.544" transform="translate(220.361 157.595)" fill="#007aac"/>
    <path id="Path_104" data-name="Path 104" d="M220.732,157.958h.726v.821h-.726Zm-.746,1.544H222.2v-2.268h-2.213Z" fill="#007aac"/>
    <path id="Path_105" data-name="Path 105" d="M235.766,151.252a2.544,2.544,0,0,1-2.777,2.795h-5.346v-1.294c0-4.045-1.933-7.68-6.514-7.68-2.477,0-4.715,1.18-4.925,3.839h1.185c.259-1.8,1.731-2.681,3.74-2.681,3.874,0,5.276,3.5,5.229,6.522l-.02,1.294H211.462v-5.614c0-2.341-1.4-3.385-3.735-3.385-2.008,0-3.62.794-3.944,2.911h1.235c.187-1.389,1.377-1.772,2.709-1.772,1.472,0,2.29.52,2.427,2.2v5.657H203.5v1.161h29.817c3.43,0,3.712-2.952,3.712-4.137v-6h-1.262Z" fill="#007aac"/>
    <path id="Path_106" data-name="Path 106" d="M203.873,154.843h29.443c2.762,0,3.34-2.049,3.34-3.771v-5.64h-.516v5.82a2.9,2.9,0,0,1-3.151,3.161h-5.718v-1.658c0-3.54-1.612-7.323-6.142-7.323-1.961,0-4.114.828-4.508,3.12h.459c.389-1.69,1.879-2.685,4.049-2.685a5.052,5.052,0,0,1,3.695,1.433,7.491,7.491,0,0,1,1.908,5.461l-.027,1.653H211.093v-5.978c0-2.037-1.1-3.023-3.365-3.023-1.928,0-3.1.731-3.49,2.183h.474c.222-.869.955-1.772,3.016-1.772a2.432,2.432,0,0,1,2.8,2.54l0,6.051h-6.658Zm29.443.726H203.13v-1.884h6.653v-5.293c-.112-1.355-.651-1.845-2.056-1.845-1.921,0-2.255.833-2.338,1.459l-.045.313h-2l.065-.415c.322-2.076,1.851-3.22,4.313-3.22,2.652,0,4.111,1.333,4.111,3.751v5.249h14.133l.012-.937a6.746,6.746,0,0,0-1.691-4.939,4.321,4.321,0,0,0-3.163-1.216c-1.13,0-3.071.306-3.368,2.372l-.045.311H215.8l.032-.391c.244-3.079,2.9-4.176,5.3-4.176,5.079,0,6.888,4.157,6.888,8.046v.93h4.972a2.184,2.184,0,0,0,2.407-2.433v-6.543H237.4v6.364c0,2.858-1.489,4.5-4.086,4.5" fill="#007aac"/>
    <rect id="Rectangle_27" data-name="Rectangle 27" width="1.472" height="1.522" transform="translate(233.059 140.458)" fill="#007aac"/>
    <path id="Path_107" data-name="Path 107" d="M233.431,140.819h.726v.8h-.726Zm-.743,1.522H234.9V140.1h-2.215Z" fill="#007aac"/>
    <path id="Path_108" data-name="Path 108" d="M265.306,154.049h-8.522c.162-2.387,1.612-7.478,7.913-7.478,1.589,0,4.416,1.046,4.416,3.977a3.621,3.621,0,0,1-3.807,3.5m-.816-8.568a7.963,7.963,0,0,0-7.684,4.773l.279-3.183h-1.33v4.3c0,3.5-1.542,6.592-5.558,6.592-3.785,0-5.4-3.091-5.4-6.592a8.913,8.913,0,0,1,.609-3.137h-1.262a8.541,8.541,0,0,0-.536,3.137c0,4.659,2.382,7.772,6.586,7.772a6.145,6.145,0,0,0,6.117-3.931h8.991c2.966,0,5.184-1.748,5.184-4.659,0-3.523-3.2-5.067-6-5.067" fill="#007aac"/>
    <path id="Path_109" data-name="Path 109" d="M257.191,153.688h8.115a3.26,3.26,0,0,0,3.433-3.139c0-2.729-2.719-3.613-4.039-3.613-6.162,0-7.3,5-7.509,6.752m8.115.724h-8.921l.027-.386c.245-3.606,2.562-7.816,8.288-7.816,1.986,0,4.785,1.348,4.785,4.339a3.988,3.988,0,0,1-4.179,3.863m-20.9-5.815a8.414,8.414,0,0,0-.427,2.77c0,4.642,2.323,7.41,6.214,7.41a5.749,5.749,0,0,0,5.77-3.7l.092-.233h9.246c2.876,0,4.812-1.724,4.812-4.3,0-3.232-2.919-4.705-5.628-4.705a7.576,7.576,0,0,0-7.345,4.56l-.9,1.979.434-4.946h-.551v3.931c0,4.356-2.215,6.956-5.93,6.956-4.254,0-5.768-3.593-5.768-6.956a9.148,9.148,0,0,1,.454-2.77Zm5.788,10.9c-4.293,0-6.958-3.113-6.958-8.134a8.837,8.837,0,0,1,.561-3.263l.09-.238h2.063l-.2.5a8.607,8.607,0,0,0-.581,3.006c0,1.464.362,6.23,5.022,6.23,4.68,0,5.184-4.356,5.184-6.23v-4.657h2.111l-.167,1.887a8.517,8.517,0,0,1,7.165-3.477c3.069,0,6.372,1.7,6.372,5.429,0,3.006-2.23,5.024-5.556,5.024h-8.742A6.517,6.517,0,0,1,250.2,159.5" fill="#007aac"/>
    <rect id="Rectangle_28" data-name="Rectangle 28" width="1.471" height="1.522" transform="translate(263.043 140.458)" fill="#007aac"/>
    <path id="Path_110" data-name="Path 110" d="M263.415,140.819h.723v.8h-.723Zm-.748,1.522h2.218V140.1h-2.218Z" fill="#007aac"/>
    <rect id="Rectangle_29" data-name="Rectangle 29" width="1.472" height="1.544" transform="translate(282.111 157.616)" fill="#007aac"/>
    <path id="Path_111" data-name="Path 111" d="M282.485,157.978h.726v.821h-.726Zm-.746,1.549h2.218v-2.273h-2.218Z" fill="#007aac"/>
    <rect id="Rectangle_30" data-name="Rectangle 30" width="1.473" height="1.544" transform="translate(278.912 157.616)" fill="#007aac"/>
    <path id="Path_112" data-name="Path 112" d="M279.287,157.978h.726v.821h-.726Zm-.746,1.549h2.215v-2.273h-2.215Z" fill="#007aac"/>
    <path id="Path_113" data-name="Path 113" d="M283.677,151.252a2.544,2.544,0,0,1-2.779,2.795h-3.034a2.537,2.537,0,0,1-2.754-2.795V140.457h-1.26V151.07c0,1.185.277,4.137,3.71,4.137h3.665c3.433,0,3.715-2.952,3.715-4.137v-6h-1.262Z" fill="#007aac"/>
    <path id="Path_114" data-name="Path 114" d="M274.222,140.822v10.251c0,1.721.579,3.771,3.338,3.771h3.665c2.762,0,3.34-2.049,3.34-3.771v-5.64h-.516v5.82a2.9,2.9,0,0,1-3.151,3.161h-3.034a2.919,2.919,0,0,1-3.128-3.161V140.822Zm7,14.748H277.56c-2.595,0-4.084-1.639-4.084-4.5V140.093h2.006v11.159a2.172,2.172,0,0,0,2.382,2.433H280.9a2.184,2.184,0,0,0,2.407-2.433v-6.541h2.006v6.361c0,2.858-1.489,4.5-4.086,4.5" fill="#007aac"/>
    <path id="Path_115" data-name="Path 115" d="M291.873,155.232a2.991,2.991,0,0,1-3.153,2.727,5.17,5.17,0,0,1-2.31-.59c.07.566.14,1.134.14,1.134a5.5,5.5,0,0,0,2.31.617,4.075,4.075,0,0,0,4.276-3.887V145.073h-1.262Z" fill="#007aac"/>
    <path id="Path_116" data-name="Path 116" d="M286.9,158.274a5.453,5.453,0,0,0,2.008.481,4,4,0,0,0,2.794-1.1,3.365,3.365,0,0,0,1.065-2.43v-9.795h-.519v9.838a3.355,3.355,0,0,1-3.525,3.05,5.58,5.58,0,0,1-1.861-.35Zm2.011,1.207a6.22,6.22,0,0,1-2.557-.67l-.15-.092-.249-2.018.639.35a4.743,4.743,0,0,0,2.131.544,2.618,2.618,0,0,0,2.782-2.384v-10.5h2.006v10.521a4.076,4.076,0,0,1-1.282,2.945,4.742,4.742,0,0,1-3.318,1.306" fill="#007aac"/>
    <path id="Path_117" data-name="Path 117" d="M325.966,151.5a2.576,2.576,0,0,1-2.779,2.821c-2.078,0-3.014-1.685-3.014-3.525v-5h-1.26V151.5a2.576,2.576,0,0,1-2.779,2.821c-2.033,0-2.991-1.615-3.014-3.387V145.8h-1.26v5.57c0,3.5-1.542,6.594-5.558,6.594-3.782,0-5.4-3.1-5.4-6.594a8.913,8.913,0,0,1,.609-3.137h-1.262a8.541,8.541,0,0,0-.536,3.137c0,4.659,2.382,7.774,6.586,7.774,3.76,0,6.072-2.275,6.653-5.839.072.112.142.2.187.291a3.662,3.662,0,0,0,3.3,1.865,3.5,3.5,0,0,0,3.433-2.248,4.377,4.377,0,0,0,3.642,2.248c3.433,0,3.712-2.979,3.712-4.157v-6.228h-1.26Z" fill="#007aac"/>
    <path id="Path_118" data-name="Path 118" d="M300.514,148.594a8.439,8.439,0,0,0-.427,2.773c0,4.64,2.325,7.41,6.214,7.41,3.418,0,5.708-2.018,6.289-5.536l.16-.986.6.971a1.4,1.4,0,0,1,.13.209,3.273,3.273,0,0,0,2.961,1.661,3.1,3.1,0,0,0,3.079-2.006l.252-.726.419.653a4.009,4.009,0,0,0,3.325,2.078c2.762,0,3.34-2.066,3.34-3.8v-5.864h-.516v6.07a2.938,2.938,0,0,1-3.153,3.181c-2.053,0-3.385-1.525-3.385-3.887v-4.637h-.516V151.5a2.937,2.937,0,0,1-3.148,3.181c-2.308,0-3.36-1.882-3.385-3.746v-4.778h-.516v5.206c0,4.356-2.215,6.954-5.93,6.954-4.251,0-5.765-3.591-5.765-6.954a9.262,9.262,0,0,1,.452-2.773ZM306.3,159.5c-4.291,0-6.958-3.118-6.958-8.136a8.8,8.8,0,0,1,.561-3.263l.087-.236h2.066l-.2.493a8.561,8.561,0,0,0-.581,3.006c0,1.462.362,6.228,5.022,6.228,4.68,0,5.182-4.356,5.182-6.228v-5.929h2.011v5.5c.015,1.459.721,3.025,2.639,3.025a2.212,2.212,0,0,0,2.4-2.455v-6.068h2.008V150.8c0,1.527.694,3.161,2.637,3.161a2.214,2.214,0,0,0,2.41-2.455v-6.8h2v6.59c0,2.875-1.484,4.523-4.081,4.523a4.523,4.523,0,0,1-3.575-1.879,3.963,3.963,0,0,1-3.5,1.879,4.042,4.042,0,0,1-3.3-1.573A6.592,6.592,0,0,1,306.3,159.5" fill="#007aac"/>
    <path id="Path_119" data-name="Path 119" d="M334.156,155.232A2.994,2.994,0,0,1,331,157.958a5.178,5.178,0,0,1-2.313-.59c.07.566.142,1.134.142,1.134a5.483,5.483,0,0,0,2.31.617,4.073,4.073,0,0,0,4.274-3.887V145.073h-1.26Z" fill="#007aac"/>
    <path id="Path_120" data-name="Path 120" d="M329.179,158.274a5.317,5.317,0,0,0,2.006.481,3.982,3.982,0,0,0,2.794-1.1,3.368,3.368,0,0,0,1.068-2.43v-9.795h-.516l0,9.838a3.356,3.356,0,0,1-3.523,3.05,5.582,5.582,0,0,1-1.864-.35Zm2.008,1.207a6,6,0,0,1-2.557-.67l-.15-.095-.249-2.013.644.347a4.711,4.711,0,0,0,2.131.544,2.614,2.614,0,0,0,2.777-2.384v-10.5h2.008v10.521a4.079,4.079,0,0,1-1.285,2.945,4.733,4.733,0,0,1-3.318,1.306" fill="#007aac"/>
    <rect id="Rectangle_31" data-name="Rectangle 31" width="1.26" height="14.752" transform="translate(338.779 140.455)" fill="#007aac"/>
    <path id="Path_121" data-name="Path 121" d="M339.151,140.819h.516v14.027h-.516Zm-.746,14.753h2.006V140.1H338.4Z" fill="#007aac"/>
    <path id="Path_122" data-name="Path 122" d="M363.691,154.3c-2.547,0-3.6-2.433-3.6-4.317,0-1.911,1.05-4.322,3.6-4.322s3.548,2.411,3.548,4.322c0,2.064-1,4.317-3.548,4.317m0-9.751c-3.363,0-4.9,2.931-4.9,5.434v1.246a2.572,2.572,0,0,1-2.779,2.819h-5.064v-5.614c0-2.341-1.4-3.385-3.737-3.385-2.006,0-3.617.794-3.947,2.911H344.5c.187-1.389,1.377-1.772,2.709-1.772,1.472,0,2.288.52,2.43,2.2v5.657H342.98v1.161h13.332a3.326,3.326,0,0,0,3.34-2,4.5,4.5,0,0,0,4.039,2.2c3.363,0,4.9-2.887,4.9-5.429,0-2.5-1.539-5.434-4.9-5.434" fill="#007aac"/>
    <path id="Path_123" data-name="Path 123" d="M363.691,146.025c-2.365,0-3.223,2.367-3.223,3.955s.858,3.958,3.223,3.958c2.345,0,3.176-2.132,3.176-3.958,0-1.367-.664-3.955-3.176-3.955m0,8.636c-2.6,0-3.969-2.353-3.969-4.681s1.365-4.679,3.969-4.679c2.694,0,3.922,2.426,3.922,4.679,0,2.331-1.215,4.681-3.922,4.681m-4.1-2.258.377.622a4.112,4.112,0,0,0,3.72,2.025c2.974,0,4.533-2.549,4.533-5.07,0-2.037-1.207-5.067-4.533-5.067s-4.533,3.03-4.533,5.067v1.25a2.939,2.939,0,0,1-3.151,3.183h-5.436v-5.978c0-2.035-1.1-3.025-3.365-3.025-1.931,0-3.1.736-3.49,2.185h.474c.225-.872.955-1.772,3.016-1.772,1.791,0,2.654.782,2.8,2.537l0,6.053h-6.656v.432h12.96a2.962,2.962,0,0,0,3-1.78Zm4.1,3.372a4.926,4.926,0,0,1-4-1.857,3.725,3.725,0,0,1-3.38,1.653H342.606v-1.884h6.656v-5.3c-.115-1.352-.654-1.84-2.056-1.84-1.921,0-2.255.83-2.338,1.454l-.045.318h-2l.062-.418c.322-2.074,1.854-3.217,4.316-3.217,2.652,0,4.111,1.331,4.111,3.749v5.252h4.69a2.215,2.215,0,0,0,2.407-2.457v-1.25c0-2.88,1.811-5.793,5.276-5.793s5.276,2.914,5.276,5.793-1.811,5.8-5.276,5.8" fill="#007aac"/>
    <rect id="Rectangle_32" data-name="Rectangle 32" width="0.669" height="0.704" transform="translate(294.492 185.181)" fill="#007aac"/>
    <path id="Path_124" data-name="Path 124" d="M297.284,186.98c0,1.59-.881,2.965-2.515,2.965-1.549,0-2.432-1.374-2.432-2.965a3.863,3.863,0,0,1,.287-1.425h-.656a4.969,4.969,0,0,0-.234,1.425c0,2.117,1.188,3.533,3.036,3.533,1.931,0,3.086-1.416,3.086-3.533v-2.86h-.571Z" fill="#007aac"/>
    <path id="Path_125" data-name="Path 125" d="M292.177,185.827a4.621,4.621,0,0,0-.165,1.153c0,1.981,1.08,3.261,2.757,3.261,1.734,0,2.809-1.25,2.809-3.261l-.015-2.591v2.591c0,1.906-1.15,3.237-2.794,3.237-1.6,0-2.712-1.331-2.712-3.237a4.12,4.12,0,0,1,.175-1.153Zm2.592,4.958c-1.983,0-3.316-1.53-3.316-3.8a5.237,5.237,0,0,1,.247-1.508l.06-.189h1.28l-.157.374a3.583,3.583,0,0,0-.267,1.323c0,1.3.674,2.693,2.153,2.693,1.544,0,2.235-1.35,2.235-2.693v-3.135h1.133v3.135c0,2.311-1.322,3.8-3.368,3.8" fill="#007aac"/>
    <path id="Path_126" data-name="Path 126" d="M319.578,180.51l.274.217,1.6-.268-.307-.206Z" fill="#007aac"/>
    <rect id="Rectangle_33" data-name="Rectangle 33" width="0.671" height="0.704" transform="translate(318.846 182.341)" fill="#007aac"/>
    <rect id="Rectangle_34" data-name="Rectangle 34" width="0.669" height="0.704" transform="translate(320.3 182.341)" fill="#007aac"/>
    <path id="Path_127" data-name="Path 127" d="M323.195,192.083l.278.216,1.6-.267-.318-.206Z" fill="#007aac"/>
    <path id="Path_128" data-name="Path 128" d="M302.8,188.2h-1.252a1.728,1.728,0,0,1-1.719-1.8,1.765,1.765,0,0,1,1.719-1.765H302.8Zm22.138-1.27a1.158,1.158,0,0,1-1.265,1.27h-1.292a1.387,1.387,0,0,1-1.442-1.527V184.45h-.576v2.479a1.155,1.155,0,0,1-1.26,1.27h-3.138a2.126,2.126,0,0,0,.788-1.661,2.368,2.368,0,0,0-2.37-2.428h-3.809a2.283,2.283,0,0,1,2.185-1.622h1.158v-.466h-1.275a2.683,2.683,0,0,0-2.694,2.615h4.436a1.823,1.823,0,0,1,1.751,1.806,1.72,1.72,0,0,1-1.664,1.755h-11.1V184.12h-1.824a2.321,2.321,0,0,0-2.358,2.375,2.256,2.256,0,0,0,2.358,2.231H302.8a1.24,1.24,0,0,1-1.432,1.25,2.189,2.189,0,0,1-1.053-.27l.062.517a3.114,3.114,0,0,0,1.053.279,1.693,1.693,0,0,0,1.941-1.765v-.012H319.25A1.475,1.475,0,0,0,320.8,187.7a1.851,1.851,0,0,0,1.679,1.022h1.345a1.651,1.651,0,0,0,1.686-1.879v-4.824h-.571Z" fill="#007aac"/>
    <path id="Path_129" data-name="Path 129" d="M301.547,184.907a1.5,1.5,0,0,0-1.439,1.5,1.455,1.455,0,0,0,1.439,1.522h.973v-3.02Zm-.813-.367a2.1,2.1,0,0,0-1.265,1.957,1.914,1.914,0,0,0,1.245,1.8,2.067,2.067,0,0,1-1.165-1.9,2.114,2.114,0,0,1,1.185-1.865m24.486-2.248v4.635a1.407,1.407,0,0,1-1.225,1.52c1.018-.083,1.237-.906,1.237-1.6Zm-4.575,2.428v2.207a1.407,1.407,0,0,1-1.225,1.52,1.174,1.174,0,0,0,1.118-.83l.17-.5a2.3,2.3,0,0,1-.047-.444Zm-5.96,3.734h.539l.561-.464a1.845,1.845,0,0,0,.686-1.454,2.166,2.166,0,0,0-1.255-1.989,2.149,2.149,0,0,1,1.2,1.894,2,2,0,0,1-1.729,2.013m-11.6,0h0l0,.277a1.5,1.5,0,0,1-.462,1.1,1.587,1.587,0,0,1-.851.391,1.517,1.517,0,0,0,.888-.369,1.468,1.468,0,0,0,.437-1.122l-.012-4.346Zm-1.507,2.324c-.055,0-.107,0-.16,0a3.249,3.249,0,0,1-1.185-.32l-.112-.068-.142-1.178.477.262a1.887,1.887,0,0,0,.928.233,1.178,1.178,0,0,0,.856-.262.827.827,0,0,0,.249-.444h-.938a2.542,2.542,0,0,1-2.634-2.5,2.586,2.586,0,0,1,2.634-2.651h2.106v4.081H314.47a1.451,1.451,0,0,0,1.387-1.486,1.555,1.555,0,0,0-1.474-1.535h-4.715v-.272a2.972,2.972,0,0,1,2.976-2.884H314.2v1.01h-1.434a2.116,2.116,0,0,0-1.8,1.076h3.42a2.651,2.651,0,0,1,2.649,2.7,2.388,2.388,0,0,1-.437,1.391h2.5a.889.889,0,0,0,.985-1v-2.748h1.133v2.491a1.13,1.13,0,0,0,1.163,1.258h1.295a.888.888,0,0,0,.983-1V181.75h1.133v5.094c0,1.369-.716,2.151-1.966,2.151h-1.347a2.212,2.212,0,0,1-1.649-.736,1.773,1.773,0,0,1-1.577.736H303.64a1.917,1.917,0,0,1-.6,1.258,2.155,2.155,0,0,1-1.467.524" fill="#007aac"/>
    <path id="Path_130" data-name="Path 130" d="M366.731,180.255l.276.216,1.6-.267L368.3,180Z" fill="#007aac"/>
    <rect id="Rectangle_35" data-name="Rectangle 35" width="0.669" height="0.692" transform="translate(367.91 182.022)" fill="#007aac"/>
    <path id="Path_131" data-name="Path 131" d="M361.142,185.834a1.833,1.833,0,0,1,3.6,0,4.478,4.478,0,0,1-1.806,2.035,4.457,4.457,0,0,1-1.794-2.035M334.1,188.311a1.994,1.994,0,0,1,0-3.924,2,2,0,0,1,0,3.924m34.378-4.193v2.812a1.157,1.157,0,0,1-1.262,1.27h-3.044a2.273,2.273,0,0,1-.721-.114,6.727,6.727,0,0,0,1.931-2.127,2.467,2.467,0,0,0-4.872,0,6.451,6.451,0,0,0,1.933,2.127,2.4,2.4,0,0,1-.724.114h-2.789a1.377,1.377,0,0,1-1.442-1.53v-4.65h-.574v4.909a1.156,1.156,0,0,1-1.262,1.27H337.714c-1.08,0-1.39-.92-1.39-1.746v-.1a2.3,2.3,0,0,0-2.228-2.467,2.086,2.086,0,0,0-1.816.94,1.2,1.2,0,0,1-1.093.566h-1a1.66,1.66,0,0,0-1.689,1.891v3.234h.571v-3.326a1.155,1.155,0,0,1,1.265-1.26h1a1.879,1.879,0,0,0,.561-.073,2.711,2.711,0,0,0-.042.5,2.257,2.257,0,0,0,2.24,2.469,2.087,2.087,0,0,0,1.993-1.333,1.824,1.824,0,0,0,1.709,1.241h18a1.481,1.481,0,0,0,1.552-1.022,1.844,1.844,0,0,0,1.676,1.022h2.51a3.211,3.211,0,0,0,1.4-.34,3.272,3.272,0,0,0,1.412.34h3.011a1.652,1.652,0,0,0,1.686-1.882v-2.727Z" fill="#007aac"/>
    <path id="Path_132" data-name="Path 132" d="M364.1,184.407a2.1,2.1,0,0,1,.918,1.372l.017.07-.025.066a2.3,2.3,0,0,1-.207.427c.12-.17.215-.318.284-.432a2.062,2.062,0,0,0-.988-1.5m-3.3,1.5c.07.119.165.272.284.442a3.071,3.071,0,0,1-.207-.437l-.02-.066.015-.07a2.1,2.1,0,0,1,.923-1.377,2.071,2.071,0,0,0-1,1.508m.636-.095a4.306,4.306,0,0,0,1.5,1.738,4.343,4.343,0,0,0,1.514-1.738,1.51,1.51,0,0,0-1.514-1.2,1.528,1.528,0,0,0-1.5,1.2m-27.34-1.153c-1.07,0-1.352,1.1-1.352,1.69,0,.677.359,1.687,1.352,1.687,1.055,0,1.335-1.1,1.335-1.687s-.279-1.69-1.335-1.69m1.327.032a2.542,2.542,0,0,1,.566,1.658,2.394,2.394,0,0,1-.776,1.84,2.013,2.013,0,0,0,.621-.811l.235-.537a3.3,3.3,0,0,1-.022-.391v-.1a2.481,2.481,0,0,0-.624-1.658m-3.158.755-.09.459a2.215,2.215,0,0,0-.037.444,2.19,2.19,0,0,0,.97,1.945,2.509,2.509,0,0,1,0-3.895,1.723,1.723,0,0,0-.591.566,1.456,1.456,0,0,1-1.155.687,1.59,1.59,0,0,0,.449-.058Zm36.491-1.059v2.54a1.406,1.406,0,0,1-1.222,1.518c1.015-.08,1.237-.906,1.237-1.6ZM357.19,182.3v4.633a1.406,1.406,0,0,1-1.227,1.518,1.169,1.169,0,0,0,1.118-.828l.17-.483a2.291,2.291,0,0,1-.047-.466Zm-28.41,7.947h.015v-3.057a1.409,1.409,0,0,1,1.362-1.525c-1.135.017-1.377.889-1.377,1.617Zm.574.541h-1.133v-3.506a1.9,1.9,0,0,1,1.968-2.161h1a.914.914,0,0,0,.856-.442,2.372,2.372,0,0,1,2.051-1.066,2.555,2.555,0,0,1,2.51,2.741v.1c0,.551.145,1.474,1.11,1.474h17.935a.885.885,0,0,0,.983-1V181.75h1.133v4.919a1.121,1.121,0,0,0,1.165,1.258h2.789l.057,0a7,7,0,0,1-1.514-1.836l-.047-.087.017-.095a2.748,2.748,0,0,1,5.421,0l.017.1-.047.087a7.388,7.388,0,0,1-1.517,1.833l.062,0h3.044a.885.885,0,0,0,.983-1v-3.084h1.13v3c0,1.369-.716,2.151-1.966,2.151h-3.011a3.476,3.476,0,0,1-1.412-.311,3.439,3.439,0,0,1-1.4.311h-2.51a2.2,2.2,0,0,1-1.647-.738A1.79,1.79,0,0,1,355.8,189H337.8a2,2,0,0,1-1.716-.928,2.343,2.343,0,0,1-1.991,1.02,2.534,2.534,0,0,1-2.517-2.739c0-.056,0-.109,0-.16-.077,0-.157.007-.244.007h-1a.882.882,0,0,0-.985.988Z" fill="#007aac"/>
    <rect id="Rectangle_36" data-name="Rectangle 36" width="0.67" height="0.692" transform="translate(366.444 182.022)" fill="#007aac"/>
  </g>
</svg>
